<svg width="795" height="97" viewBox="0 0 795 97" fill="none" xmlns="http://www.w3.org/2000/svg">
<g clip-path="url(#clip0_114_20)">
<path d="M596.383 28.001H582.059C571.28 28.001 564.81 33.3117 564.81 45.2651V95.3525H579.309V47.1922C579.309 42.7252 581.707 40.7981 586.14 40.7981H596.391H606.334V95.3525H620.833V28.001H596.391H596.383Z" fill="#242320"/>
<path d="M780.714 28.0007V36.0911C776.043 30.4163 768.974 26.6775 759.031 26.6775C739.384 26.6775 725.846 42.13 725.846 61.8008C725.846 81.4716 739.384 96.7998 759.031 96.7998C768.974 96.7998 776.043 93.1764 780.714 87.2619V95.3522H794.852V28.0007H780.714ZM760.583 83.7628C749.203 83.7628 740.46 74.9532 740.46 61.7919C740.46 48.6307 749.203 39.7055 760.583 39.7055C771.362 39.7055 780.344 48.6395 780.344 61.7919C780.344 74.9443 771.239 83.7628 760.583 83.7628Z" fill="#242320"/>
<path d="M697.392 26.5532C689.724 26.5532 682.179 30.0522 678.345 36.0911C674.634 29.9367 668.164 26.5532 659.896 26.5532C652.228 26.5532 646.481 30.1765 643.608 34.6435V28.0007H629.108V95.3522H643.608V53.5861C643.608 44.0482 648.755 38.8619 655.948 38.8619C663.14 38.8619 668.05 44.4123 668.05 53.222V95.3433H682.549V53.5772C682.549 44.0393 687.696 38.853 694.889 38.853C702.081 38.853 706.991 44.4034 706.991 53.2131V95.3345H721.49V52.4849C721.49 36.0733 712.508 26.5354 697.41 26.5354L697.392 26.5532Z" fill="#242320"/>
<path d="M531.29 10.1416H501.938V95.3522H516.676V67.227H531.29C549.015 67.227 561.117 54.6785 561.117 38.7464C561.117 22.8144 548.901 10.1416 531.29 10.1416ZM528.416 54.5542H516.676V22.8144H528.293C538.597 22.8144 545.542 28.4892 545.542 38.7464C545.542 49.0037 538.711 54.5542 528.408 54.5542H528.416Z" fill="#242320"/>
<path d="M462.485 36.0911C457.813 30.4163 450.744 26.6775 440.802 26.6775C421.155 26.6775 407.616 42.13 407.616 61.8008C407.616 81.4716 421.155 96.7998 440.802 96.7998C450.744 96.7998 457.813 93.1764 462.485 87.2619V95.3522H476.623V28.0007H462.485V36.0911ZM442.362 83.7628C430.983 83.7628 422.239 74.9532 422.239 61.7919C422.239 48.6307 430.983 39.7055 442.362 39.7055C453.142 39.7055 462.132 48.6395 462.132 61.7919C462.132 74.9443 453.027 83.7628 442.362 83.7628Z" fill="#242320"/>
<path d="M389.293 56.3658L381.148 53.9502C375.401 52.2629 373.118 49.4832 373.118 45.5046C373.118 41.162 376.829 37.9027 382.347 37.9027C387.865 37.9027 391.928 41.2863 392.651 46.3483H404.629C403.193 31.2599 391.575 26.6775 382.232 26.6775C369.417 26.6775 359.474 35.0076 359.474 46.8368C359.474 56.6144 365.344 63.6125 375.648 66.6319L384.154 69.1629C390.262 70.8503 392.184 74.1095 392.184 77.9726C392.184 82.5551 388.349 85.6988 382.479 85.6988C376.609 85.6988 371.814 82.6794 371.215 76.525H358.637C359.113 91.9775 371.814 96.7998 382.356 96.7998C396.97 96.7998 405.713 87.9901 405.713 76.525C405.713 67.2269 400.681 59.625 389.301 56.3658H389.293Z" fill="#242320"/>
<path d="M338.619 69.2786C338.619 78.8165 333.348 84.4824 325.68 84.4824C318.012 84.4824 312.864 78.5679 312.864 69.6339V28.001H298.365V70.8505C298.365 87.2621 307.346 96.8 321.722 96.8C329.153 96.8 335.622 93.1767 338.61 88.5942V95.3525H353.11V28.001H338.61V69.2786H338.619Z" fill="#242320"/>
<path d="M276.938 36.0911C272.266 30.4163 265.197 26.6775 255.255 26.6775C235.608 26.6775 222.069 42.13 222.069 61.8008C222.069 81.4716 235.608 96.7998 255.255 96.7998C265.197 96.7998 272.266 93.1764 276.938 87.2619V95.3522H291.076V28.0007H276.938V36.0911ZM256.806 83.7628C245.427 83.7628 236.683 74.9532 236.683 61.7919C236.683 48.6307 245.427 39.7055 256.806 39.7055C267.586 39.7055 276.576 48.6395 276.576 61.7919C276.576 74.9443 267.471 83.7628 256.806 83.7628Z" fill="#242320"/>
<path d="M181.409 22.6902C191.351 22.6902 201.056 28.8446 204.291 37.894H219.627C215.793 20.5144 200.104 8.6853 180.933 8.6853C156.368 8.69418 138.043 27.5213 138.043 52.7426C138.043 77.9639 156.368 96.7999 180.933 96.7999C199.742 96.7999 215.317 85.3349 219.389 68.6747H203.815C200.342 77.1202 190.999 82.795 181.409 82.795C165.72 82.795 153.494 70.362 153.494 52.7426C153.494 35.1232 165.711 22.6902 181.409 22.6902Z" fill="#242320"/>
<path d="M621.502 -0.000488281H604.755V16.8729H621.502V-0.000488281Z" fill="#242320"/>
</g>
<path d="M117.286 58.3572H0V66.7502H117.286V58.3572Z" fill="#D96F35"/>
<path d="M68.2633 66.6353H58.7175H49.1763L20.5156 95.1994H58.7175H96.9193L68.2633 66.6353Z" fill="#AE8D3E"/>
<path d="M79.2242 8.70811C90.5618 20.0666 90.5618 38.48 79.2242 49.8385C67.8865 61.197 49.507 61.197 38.1693 49.8385C26.8316 38.48 26.8316 20.0666 38.1693 8.70811C49.507 -2.65042 67.8865 -2.65042 79.2242 8.70811ZM59.0155 13.0492L42.6513 29.4435L59.0155 45.8378L75.3798 29.4435L59.0155 13.0492Z" fill="#ABCEFE"/>
<defs>
<clipPath id="clip0_114_20">
<rect width="656.8" height="96.8" fill="white" transform="translate(138.042)"/>
</clipPath>
</defs>
</svg>
